<?xml version="1.0" encoding="UTF-8"?>
<svg id="Layer_2" data-name="Layer 2" xmlns="http://www.w3.org/2000/svg" viewBox="0 0 742.29 752.33">
  <defs>
    <style>
      .cls-1 {
        fill: #42ac8a;
      }

      .cls-1, .cls-2, .cls-3, .cls-4, .cls-5 {
        stroke-width: 0px;
      }

      .cls-2 {
        fill: #f6faf9;
      }

      .cls-3 {
        fill: #207ff8;
      }

      .cls-4 {
        fill: #e5ce45;
      }

      .cls-5 {
        fill: #353c57;
      }
    </style>
  </defs>
  <g id="Layer_1-2" data-name="Layer 1">
    <g>
      <path class="cls-1" d="M97.97,564.1c4.2,15.85,5.2,6.71,18.78,13.37,11.92,5.84,9.51,38.09,3.36,47.39-4.09,6.17-3.51,3.32-8.75-1.27-7.81-6.85-14.23-15.78-20.91-23.61-2.84-3.32-20.68-20.27-19.8-24.52.37-1.81,11.65-7.6,14.85-9.76,1.72.04,2.26-1.09,2.68-2.34,0,0-.17.21-.17.21,2.94-.96,3.12-4.95,6.56-5.3,2.06,1.59-.41,5.26,3.4,5.84Z"/>
      <path class="cls-1" d="M260.13,320.74c.27,5.97-3.85,11.48-5.32,17.08-.9,3.42.72,13.77-.59,15.84-1.78,2.81-13.06,4.86-16.37,6.4-5.4,2.51-10.6,6.7-16.49,7.77,2.31-7.44,7.17-13.31,8.73-20.45,3.7-7.91,1.73-23.75,8.11-29.97,3.84-3.75,23.45-6.45,21.95,3.34Z"/>
      <path class="cls-2" d="M247.13,16.69c17.2-9.32,7.91,11.78,17.86,10.78,1.86-.19,7.33-4.34,9.71-5.1,3.75-1.19,7.77-1.75,11.62-2.53,11.44-2.29,22.96-4.11,34.55-5.43,38.89-4.43,78.55-3.55,117.17,2.87,74.14,12.32,141.64,46.63,195.09,99.49,108.63,107.44,139.12,273.34,78.16,413.04-14.89,34.11-34.97,65.83-59.16,94.09-24.94,29.14-55.99,60.57-91.59,76.15,3.24,4.51,6.61,20.4,2.1,25.23-4.49,4.81-28.31-2.11-34.5-2.79-25.55-2.79-51.26-3.6-76.94-3.81-11.07-.09-22.24.45-33.3-.07-2.77-.13-6.84-1.31-9.58-.27-4.08,1.55-5.17,5.24-9.64,6.38-9.48,2.42-24.97-1.1-34.93-.95-4.43.07-9.9,1.29-14.21.76-5.76-.7-6.92-4.77-11.95-6.56-8.57-3.04-22.6.63-31.93.72-12.83.13-25.67.09-38.5.41-23.15.58-45.55,5.65-68.63,6.98-9.21.53-15.55,1.66-17.63-8.07-2.02-9.48,5.17-14.37-2.34-20.69-17.02-14.3-36.47-25.39-53.17-40.45C54.4,592.86,9.82,502.97,1.34,407.7c-8.69-97.63,25.43-199.97,90.55-273.43,7.55-8.52,21.7-17.35,26.8-27.37,4.42-8.69-2.9-21.26-.65-31.64,1.21-5.56,3.73-6.35,6.51-11.11,2.77-4.74,2.01-8.72,3.14-14.12,2.46-11.73,13.06-20.74,21.03-29.07,10.88-11.38,14.98-8.48,27.59-3.13,6.05,2.57,19.56,8.37,25.55,5.92,9.96-4.07,13.76-19.18,24.42-22.85,11.94-4.12,17.2,6.68,20.86,15.79ZM225.53,18.07c-.25.18-.41.42-.47.71-6.99,8.21-14.88,19.62-26.65,21.07-6.53.81-7.02-2.51-12.87-4.26-5.7-1.7-8.57,3.04-13.24,2.62-7.78-.7-3.67-15.12-11.65-13.42-3.29.7-4.8,8.93-6.01,11.33-1.89,3.74-4.07,4.54-6.24,7.44-2,2.67-2.57,5.49-4.21,8.31-1.56,2.69-3.37,1.56-4.64,5.03-1.2,3.28.83,7.47-.73,11.07-1.6,3.7-4.97,4.18-6.89,6.97-5.48,7.98,2.53,41.49,10.32,48.02,5.01,4.2,10.95-.29,14.22,7.18,3.02,6.88.05,12.85,5.55,19.41,3.08,3.68,5.53,5.37,7.57,9.83,1.84,4.03,2.31,6.47,5.29,10.02,4.61,5.48,11.96,12.04,10.44,20.58-1.33,7.51-3.27,2.43-7.45,6.2-2.78,2.52-1.88,3.96-3.18,7.13-2.46,5.98-7.18,7.89-10.22,14.12-4.1,8.39-9.78,19.73-8.3,29.22,1.58,10.12,9.97,18.94,15.02,27.6,4.97,8.53,11.83,13.92,14.42,23.51,3.03,11.21,4.08,22.03,4.25,33.56.15,10.41,4.9,20.73,4.05,30.95-.71,8.54-6.27,15.74-8.14,24.08,20.58-11.84,29.44-22.42,34.1-46.47,1.97-10.15,1.35-21.73,6.87-30.93,4.8-8.01,17.14-5.2,26.18-5.56,9.74-.39,19.49,2.08,20.14,13.72.34,6.12-10.87,23.88-8.54,27.79,2.6,4.37,13.38-2.1,17.28-4.56,7.32-4.62,11.47-12.82,17.39-18.89-11.28-2.32-20.3-8.85-24.45-19.74-5.01-13.15-1.24-29.95-6.83-42.36-2.15-4.77-7.6-6.73-10.11-11.37-2.85-5.26-2.33-10.31-.71-15.86,1.9-6.49,5.85-12.2,8.05-18.53,2.93-8.46-.74-9.65-3.26-17.35-2.26-6.92-.93-14.25.9-21.11,1.13-4.23,5.94-11.73,5.13-15.83-.86-4.36-7.55-8.52-10.1-12.18-3.32-4.77-5.75-10.14-7.19-15.76-3.07-11.96-1.61-24.82,4.09-35.78,6.64-12.76,17.14-12.91,29.94-7.62.69-5.67,13.12-41.52.55-35.91-3.64,1.63-5.88,10.18-11.72,6.25-4.16-2.8-.63-14.84-4.11-16.75-4.62-2.53-8.62,7.18-13.36,6.5-5.71-.82-2.59-6.57-5.08-10.46-4.27-6.68-2.79.46-8.49-2.06-3.86-1.7-7-16.16-8.56-20.04-.27-2.95-2.09-2.93-4.09-1.93-1.75.87-2.97,2.42-3.95,4.11-.21.05-.32.19-.32.41ZM91.8,573.7c-1.36-.19-1.39,1.03-1.88,1.77-2.26,1.64-10.2,6.03-10.46,7.4-.62,3.23,11.95,16.08,13.94,18.6,4.7,5.93,9.22,12.71,14.72,17.9,3.69,3.48,3.28,5.65,6.16.97,4.33-7.05,6.02-31.5-2.37-35.93-9.56-5.05-10.26,1.88-13.22-10.14-.05-2.22,1.4-9.9-2.14-10.48-2.35-.38-5.12,8.5-4.87,10.07l.12-.16ZM297.31,31.98c-1.72.1-15.73,1.09-14.23,5.4.67,1.94,9.63-.01,12.3,1.58,4.93,2.95,6.91,10.56,8.03,15.67,1.22,9.02-2.54,16.09-2.86,24.65-.33,8.86,1.01,6.48,10.49,4.45,18.44-3.96,36.99-9.01,55.98-9.21,15.32-.16,31.43,2.23,45.34,8.94,7.04,3.4,13.48,7.95,18.94,13.56,4.49,4.61,6.59,10.76,12.97,11.12,7.98.44,16.26-8.6,25.38-8.2,7,.31,11.94,3.55,16.32,8.81,4.71,5.65,7.73,12.24,13.08,17.5,5.71,5.61,13.38,8.93,18.83,14.66,12.27,12.89,2.43,24.01,1.64,38.34-.89,16.23,17.23,30.14,27.33,40.69,6.26,6.54,14.47,12.8,17.4,21.72,2.56,7.77.32,15.49-.14,23.37-.82,13.75-1.69,25.04-10.63,36.43-8.4,10.69-21.76,16.06-33.81,8.17-6.54-4.28-7.27-4.21-15.67-3.08-7.22.97-14.51.63-21.78.53-10.52-.14-17.82-1.6-27.67-4.61-5.3-1.62-13.04-3.49-15.61,4.21-2.67,7.97,15.54,23.19,21.18,27.2,27.07,19.26,60.19,32.33,90.04,46.63,13.22,6.33,34.92,13.06,43.41,25.68,7.43,11.05,8.86,29.6,11.43,42.4,7.09,35.38,11.25,71.02,15.74,106.79,2.3,18.35,5.08,36.64,7.79,54.93.69,4.66-.04,13.31,5.28,13.51,2.19.08,10.1-12.39,11.7-14.42,19.65-24.99,36.73-52.01,50.08-80.89,55.4-119.85,38.93-263.64-42.11-367.68-36.91-47.39-87.09-88.77-143.6-110.22-66.07-25.07-137.72-30.48-207.26-19.53-1.05.04-2.1.09-3.14.13l-2.15.76ZM231.03,348.34c-1.39,6.4-5.74,11.65-7.81,18.32,5.28-.97,9.93-4.71,14.77-6.96,2.96-1.38,13.06-3.22,14.66-5.73,1.18-1.86-.28-11.12.53-14.18,1.32-5.01,5.01-9.95,4.77-15.29,4.76-9.89-7.58-7.77-15.3-6.86-7.24.85-6.41,1.21-7.77,8.79-1.31,7.29-2.56,14.6-3.83,21.91ZM146.08,445.15c-4.52-1.41-6.82,11.46-10.9,11.58-4.08.12-2.24-6.97-9.08-6.03-7.32,1-11.15,10-13.98,15.52-3.47,6.75-7.84,12.41-11.63,18.84-4.02,6.82-3.99,12.96-5.46,20.51-1.58,8.12-4.7,16.28-6.97,24.25-1.31,4.6-7.61,18.82-3.03,22.69,4.73,4,9.76-8.35,11.75-11.55,4.04-.55,8.39,3.68,9.92,6.63,1.2,2.32-.78,6.95,1.03,9.08,1.04,1.22,3.13.84,3.48,1.23.42.49,2.25.23,3.2,1.66.29.44-.02,6.98-.01,7.01,1.01,5.32,3.9,9.1,8.79,11.55,4.17-7.16,2.24-22.46,3.41-30.89,1.62-11.74,3.07-23.53,5.32-35.16,4.27-22.06,5.46-46.18,14.08-67.01l-.02-.14.1.23ZM68.09,564.94c4.9-5.28,3.51-19.79,4.69-26.68,1.73-10.13,5.14-19.2,8.11-28.93,2.4-7.85,2.61-16.08,5.61-23.92,3.4-8.85,9.04-16.33,13.99-24.33,3.95-6.39,7.73-12.61,13.7-17.39,6.33-5.06,13.26-5.75,20.36-8.86,15.88-6.95,11.36-26.93,23.47-36.83,6.94-5.67,11.03-4.27,15.26-13.36,2.99-6.41,7.97-14.5,8.74-21.51.79-7.21-3.25-14.31-3.97-21.47-.8-7.94.45-15.77-1.01-23.68-6.28-34.07-44.04-55.89-30.38-92.82,3.07-8.3,7.77-15.85,12.05-23.55,1.42-2.55,2.71-5.27,4.22-7.75.63-1.04,6.75-8.04,6.95-8.81,1.14-4.33-8.41-11.51-10.64-15.2-3.48-5.75-9.06-13.24-11.67-19.35-3.56-8.32-1.27-8.89-8.4-14.3-3.29-2.49-6.18-4.19-8.47-7.79.23.37-2.52-6.9-2.9-7.1-6.06-3.13-27.06,25.6-31.09,30.71-45.07,57.14-75.04,125.19-80.94,198.07-3.04,37.47.39,75.26,9.42,111.72,4.69,18.93,10.98,37.32,18.68,55.24,6.62,15.41,13.43,34.81,24.21,47.9ZM266.73,105.81c11.34,16.73,20.28,29.78,41.82,31.69,9.67.86,19.58,0,29.1-1.75,3.33-.61,22.52-8.29,24.88-5.93,7.43,7.44-29.1,16.96-35.33,17.73-9.58,1.18-19.04.32-28.45-1.6-11.17-2.28-11.59-1.22-15.82,9.63-3.59,9.22-10.03,20.71-10.38,30.75-.31,8.66,7.61,13.19,7.03,21.85-.62,9.33-8.71,17.05-10.81,25.84-2.04,8.52,1.09,7.7,6.9,13.14,6.3,5.88,4.42,12.64,6.03,20.82,1.59,8.05,2.39,15.75,3.55,23.81,2.58,17.83,17.39,18.17,32.66,16.46,16.26-1.83,35.38-5.8,49.54-14.51,5.33-3.27,18.83-22.77,22.93-14.8,2.38,4.63-10,16.6-12.97,19.23-5.33,4.71-11.52,8.12-18.13,10.69-8.08,3.14-16.63,5.1-25.15,6.56-6.85,1.17-13.12-.8-13.11,6.26.02,13.68,31.99,29.79,41.53,35.02,7.27,3.98,10.05,5.78,17.7,1.92,6.36-3.21,12.6-7.18,18.41-11.29,11.77-8.33,27.9-20.25,27.29-35.83-.6-15.37-3.83-28.86,2.47-43.8,13.82-32.77,33.91-63.78,29.02-101.27-4.45-34.06-43.6-42.88-71.43-29.66-12.05,5.72-21.76,16.73-20.91,30.81,1.04,17.19,16.74,20.71,21.9,34.39,1.45,3.85-1.44,15.12,3.04,16.19,4.57,1.09,6.15-8.61,7.69-11.06,7.99-12.72,25.98-12.85,34.23-.2,7.68,11.77,2.59,28.9-4.93,39.5-3.52,4.96-28.75,24.38-29.95,10.12-.48-5.61,11.41-7.59,15.06-10.51,5.03-4.01,8.96-9.9,11.02-15.97,3.13-9.23-.52-28.26-14.32-20.49-6.74,3.79-4.35,12.82-9.78,16.11-2.43,1.47-17.61,1.47-19.95.08-4.25-2.53-1.08-7.93-1.27-12.13-.27-6.14-2.59-10.4-6.68-14.71-17.76-18.74-23.3-47.09.42-64.89,13.51-10.13,32.65-11.86,48.9-10.73,7.54.53,11.36,3.67,11.15-4.11-.16-5.76-6.63-12.68-10.46-16.13-26.14-23.59-66.02-17.34-96.92-9.36-9.68,2.5-19.33,5.36-29.36,6.07-8.19.58-16.38-3.2-23.84-2.91-6.33.25-6.28,5.97-8.09,12.14-2.27,7.73-3.59,14.52-.95,22.44,1.33,3.98,7.15,16.93,12.02,16.68,1.17-.06,7.54-7.49,7.47-8.83-.22-3.85-9-7.73-11.47-11.27-4.18-5.99-7.41-15.38-3.29-22.17ZM276.34,355.65c-6.48.44-15.56,7.29-21.29,10.01-7.99,3.79-15.97,7.6-23.95,11.41-16.13,7.7-32.27,15.38-48.36,23.18-9.2,4.46-13.73,3.67-9.74,12.27,3.53,7.61,7.07,14.88,9.93,22.94,5.71,16.1,10.62,32.56,14.71,49.15,2.44,9.9,5.59,34.14-4.98,11.78-6.67-14.11-10.82-29.72-14.75-44.77-1.98-7.58-4.59-33.81-12.3-38.32-6.93-4.05-8.43,24.48-9.37,29.51-6.39,34.35-12.76,68.69-18.35,103.18-2.8,17.32-5.39,34.66-8.34,51.95-1.74,10.18-10.36,32.69-4.96,41.19,2.56,4.04,15.42,11.45,19.53,14.97,4.92,4.22,10.03,8.24,15.23,12.12,10.72,8.02,22.44,18.13,35.26,22.48,3.42,1.16,12.63,4.32,15.41,1.18,2.42-2.74.22-20.51.22-23.91-.02-15.48-.02-30.96-.02-46.44,0-17.3,0-34.6,0-51.9,0-13.15-3.19-30.27,2.85-42.3,12.32-24.51,41.23-19.21,64.27-19.21-9.41-18.73-18.05-37.82-26.58-56.96-3.17-7.11-9.06-14.23-4.6-21.05,3.74-5.71,15.75-11.74,21.68-14.58-6.75-7.06-20.25-7.65-15.48-18.34,6.13-13.74,16.85-26.24,23.99-39.57ZM479.38,413.33c5.05,3.07,18.91,9.69,21.73,15.3,2.74,5.44-2.58,12.85-4.95,18.46-2.28,5.4-19.7,38.19-15.81,41.76,2.78,2.55,21,.57,24.54.58,3.67,0,13.91-1.98,15.9.93,7.61,11.14-30.05,7.73-34.81,7.84-4.33.1-13.75-1.46-12.58,5.63.67,4.09,7.72,1.98,11.05,1.99,12.77,0,26.11-2.32,36.94,5.75,23.29,17.34,14.5,57.19,14.41,82.19-.07,17.53-.11,35.06-.15,52.58-.02,8.3-.05,16.61-.08,24.91-.01,3.56-1.91,16.19.22,18.94,10.69,13.79,60.6-32.03,69.16-39.14,12.7-10.56,16.87-15.05,13.81-31.82-2.64-14.46-4.45-28.86-6.53-43.39-4.42-30.81-8.11-61.69-12.37-92.53-2.23-16.12-5.44-32.13-8.65-48.08-1.6-7.94-4.1-31.91-11.6-14.4-6.62,15.45-10.03,32.17-15.02,48.18-3.21,10.29-7.15,32.35-17.37,38.23-3.09-6.44,2.44-20.81,4.01-27.38,2.05-8.57,4.51-17.08,7.19-25.48,3.03-9.47,10.18-41.56,21.33-44.24-35.73-21.25-75.21-34.9-110.7-56.59,7.16,12.4,14.64,24.6,22.45,36.6,4.11,6.32,6.97,7.9,2.39,13.09-3.67,4.16-10.56,5.52-14.48,10.09ZM375.01,516.94s0,.08,0,.12c-42.14,0-84.28-.1-126.41.05-18.64.07-26.97,8.25-27.06,26.66-.16,33.64.02,67.29.04,100.93.01,17.15-.06,34.31.06,51.46.02,3.58-1.02,5.03-4.84,4.88-6.15-.24-12.33.34-18.47.07-3.84-.17-5.2,1.07-4.6,4.77.27,1.64.35,3.31.57,4.96.21,1.56.76,2.01,2.63,1.74,16.19-2.35,32.54-1.98,48.83-2.51,31.79-1.05,63.62,1.03,95.39-1.19,2.19-.15,3.27.3,3.83,2.63.68,2.84,2.82,3.68,5.77,3.33,14.46-1.73,28.91-1.4,43.32.61,2.21.31,4.24.19,4.97-2.1,1.23-3.83,4.11-3.64,7.19-3.62,35.47.25,70.95.35,106.42.74,10.14.11,20.34.28,30.38,2,7.68,1.32,7.64,1.55,8.65-6.42.08-.66.13-1.33.23-1.99.37-2.45-.75-3.31-3.11-3.14-3.99.29-7.98.6-11.97.66-12.17.18-12.16,3.24-12.29-11.73-.33-40.47-.17-80.94-.18-121.41,0-9.99.31-19.99.07-29.98-.3-12.54-9.63-21.51-22-21.51-42.47-.02-84.94,0-127.42,0ZM434.19,293.55c9.84-4.18,10.69-12.91,22.35-6.28,9.95,5.66,20.36,6.01,31.93,6.69,10.05.59,21.62-6.4,30.8-3.29,8.55,2.9,13.18,16.62,21.41,6.08,4.46-5.71,9.18-13.93,10.13-20.63.78-5.45.31-11.24,1.01-16.77.41-3.21,2.7-8.91,1.84-12.03-1.21-4.43-3.16-2.53-6.29-5.41-2.65-2.44-4.5-6.67-6.64-9.59-5.89-8.01-13.24-13.63-20-20.7-6.24-6.53-11.71-16-13.67-24.81-2.35-10.51,2.68-18.04,4.54-28.06,1.76-9.45-4.48-10.5-11.92-15.16-6.86-4.29-12.16-7.69-16.85-14.58-4.24-6.23-6.51-16.68-15.76-15.45-2.16.29-21.77,8.63-22.46,10.06-1.58,3.29,12.76,14.22,15.53,18.21,5.43,7.81,8.29,16.6,9.41,26,2.59,21.75-2.99,44.77-10.77,64.97-7.42,19.26-23.59,39.74-24.59,60.74ZM313.35,506.09v-.23c6.17,0,13.14.86,19.24.01,5.64-.78,4.33.57,5.97-4.08,2.13-6.03-5.14-24.46-6.51-31.07-4.14-19.89-7.44-39.5-10.68-59.56-3.32-20.56-6.19-40.81-8.36-61.54-.33-3.12-.15-21.76-3.42-22.46-2.65-.56-13.21,15.77-14.39,17.46-5.96,8.52-11.01,17.6-16.17,26.61-2.83,4.93-15.01,19.1-15.1,24.45-.14,8.19,13.2,8.01,17,14.85,4.02,7.24-7.32,10.69-13.17,14.63-9.56,6.43-13.01,6.6-8.12,17.36,4.88,10.74,10.12,21.3,14.94,32.07,3.48,7.79,7.12,22.83,12.95,29.06,4.7,5.02,19.19,2.44,25.84,2.44ZM435.13,325.61c-4.52,44.39-10.22,88.27-18.21,132.18-1.94,10.69-3.99,21.36-6.23,31.99-1.74,8.29-5.83,13.79,2.16,16.46,8.65,2.89,25.92-.57,35.29-.56,11.77.02,11.7.22,16.27-10.65,4.52-10.76,9.05-21.52,13.68-32.23,2.74-6.33,12.69-20.87,11.97-27.83-1.3-12.51-34.31-14.36-21.25-27.32,2.73-2.71,14.08-6.31,14.58-10.43.65-5.32-11.61-18.4-14.21-22.58-10.75-17.32-21.76-32.78-34.07-49.03ZM373.13,506.31c0-.13,0-.26,0-.38,3.89,0,21.75,2.48,25.18-.31,3.73-3.04.16-13.43-.39-17.84-2.38-18.84-5.29-37.62-8.69-56.3-1.24-6.83-4.87-16.05-3.17-23.09,1.55-6.42,11.28-11.77,11.58-18.13.34-7.32-19.31-24.34-27.48-22.23-5.95,1.53-14.02,10.15-17.83,14.87-5.59,6.91-3.32,8.08,1.69,15.72,3.55,5.42,6.86,8.84,6.49,15.61-.43,7.94-3.59,16.69-4.9,24.59-2.97,17.92-4.64,36.01-7.24,53.98-.88,6.05-3.48,10.64,1.32,13.6,3.8,2.35,18.56-.07,23.46-.07ZM82.96,559.66c-1.53.22-2.23,4.31-.41,4.58,2.45.37,2.2-3.99.41-4.58Z"/>
      <path class="cls-2" d="M501.03,730.5c-16.31,12.03-43.05,15.13-62.52,18.02-23.02,3.42-46.19,4.01-69.42,3.76-22.31-.24-44.48-.97-66.61-3.99-19.93-2.73-45.36-7.63-62.74-18.28,7.07-3.99,18.07-.16,25.26,1.03,10.89,1.8,21.72,3.86,32.69,5.18,23.61,2.85,47.44,3.31,71.2,3.49,23.04.18,46.26.87,69.22-1.44,10.04-1.01,19.84-2.96,29.71-4.96,9.59-1.95,23.74-6.38,33.22-2.81Z"/>
      <path class="cls-4" d="M302.59,31.09c69.54-10.95,141.19-5.55,207.26,19.53,56.51,21.45,106.69,62.83,143.6,110.22,81.04,104.04,97.51,247.82,42.11,367.68-13.35,28.88-30.43,55.9-50.08,80.89-1.6,2.03-9.5,14.51-11.7,14.42-5.33-.2-4.59-8.85-5.28-13.51-2.7-18.3-5.48-36.58-7.79-54.93-4.49-35.77-8.65-71.41-15.74-106.79-2.56-12.8-3.99-31.35-11.43-42.4-8.5-12.62-30.2-19.36-43.41-25.68-29.85-14.29-62.97-27.36-90.04-46.63-5.64-4.01-23.85-19.23-21.18-27.2,2.57-7.69,10.31-5.83,15.61-4.21,9.85,3.02,17.16,4.47,27.67,4.61,7.26.1,14.55.44,21.78-.53,8.4-1.13,9.13-1.2,15.67,3.08,12.06,7.89,25.42,2.53,33.81-8.17,8.95-11.39,9.82-22.68,10.63-36.43.47-7.88,2.7-15.6.14-23.37-2.94-8.92-11.14-15.18-17.4-21.72-10.09-10.55-28.22-24.46-27.33-40.69.79-14.33,10.63-25.46-1.64-38.34-5.45-5.73-13.12-9.05-18.83-14.66-5.35-5.26-8.37-11.85-13.08-17.5-4.38-5.26-9.32-8.5-16.32-8.81-9.12-.41-17.39,8.64-25.38,8.2-6.38-.35-8.48-6.51-12.97-11.12-5.46-5.61-11.9-10.16-18.94-13.56-13.91-6.7-30.01-9.1-45.34-8.94-18.98.2-37.54,5.25-55.98,9.21-9.48,2.04-10.82,4.41-10.49-4.45.32-8.56,4.08-15.63,2.86-24.65-.06-7.57-3.47-15.09-.33-22.72.07-.18-.31-.55-.48-.83ZM655.38,383.52c-1.92-6.67-13.51-8.2-13.55-.25-.04,8.8,11.17,5.62,13.55.25ZM686.68,383.3c-2.03-6.45-11.48-9.17-11.53-.29-.04,8.09,9.87,7.41,11.53.29Z"/>
      <path class="cls-1" d="M68.09,564.94c-10.77-13.09-17.58-32.49-24.21-47.9-7.7-17.92-13.99-36.3-18.68-55.24-9.03-36.46-12.46-74.25-9.42-111.72,5.91-72.87,35.87-140.93,80.94-198.07,4.03-5.11,25.04-33.84,31.09-30.71.38.2,3.13,7.47,2.9,7.1,2.29,3.6,5.18,5.3,8.47,7.79,7.13,5.41,4.84,5.98,8.4,14.3,2.61,6.1,8.19,13.59,11.67,19.35,2.23,3.7,11.78,10.87,10.64,15.2-.2.77-6.32,7.77-6.95,8.81-1.5,2.48-2.8,5.2-4.22,7.75-4.28,7.7-8.98,15.25-12.05,23.55-13.66,36.94,24.11,58.75,30.38,92.82,1.46,7.91.2,15.74,1.01,23.68.72,7.15,4.77,14.26,3.97,21.47-.77,7.01-5.75,15.1-8.74,21.51-4.23,9.09-8.33,7.69-15.26,13.36-12.11,9.9-7.59,29.88-23.47,36.83-7.1,3.11-14.03,3.8-20.36,8.86-5.97,4.78-9.75,11-13.7,17.39-4.95,8-10.6,15.47-13.99,24.33-3,7.83-3.22,16.07-5.61,23.92-2.97,9.73-6.38,18.8-8.11,28.93-1.18,6.9.21,21.41-4.69,26.68Z"/>
      <path class="cls-5" d="M266.73,105.81c-4.12,6.79-.89,16.17,3.29,22.17,2.47,3.54,11.25,7.42,11.47,11.27.08,1.34-6.3,8.77-7.47,8.83-4.87.25-10.69-12.7-12.02-16.68-2.64-7.92-1.32-14.71.95-22.44,1.81-6.17,1.76-11.89,8.09-12.14,7.46-.3,15.65,3.48,23.84,2.91,10.03-.71,19.68-3.57,29.36-6.07,30.9-7.98,70.78-14.23,96.92,9.36,3.83,3.45,10.3,10.37,10.46,16.13.21,7.78-3.61,4.64-11.15,4.11-16.25-1.14-35.4.59-48.9,10.73-23.72,17.8-18.18,46.16-.42,64.89,4.09,4.32,6.41,8.58,6.68,14.71.19,4.2-2.98,9.59,1.27,12.13,2.34,1.39,17.52,1.39,19.95-.08,5.43-3.29,3.04-12.31,9.78-16.11,13.8-7.77,17.44,11.26,14.32,20.49-2.05,6.07-5.99,11.95-11.02,15.97-3.65,2.92-15.54,4.89-15.06,10.51,1.21,14.26,26.44-5.16,29.95-10.12,7.52-10.6,12.61-27.73,4.93-39.5-8.25-12.65-26.23-12.51-34.23.2-1.54,2.45-3.12,12.15-7.69,11.06-4.49-1.07-1.59-12.34-3.04-16.19-5.16-13.68-20.86-17.19-21.9-34.39-.85-14.07,8.86-25.09,20.91-30.81,27.83-13.22,66.98-4.4,71.43,29.66,4.9,37.48-15.2,68.5-29.02,101.27-6.3,14.95-3.07,28.43-2.47,43.8.61,15.58-15.52,27.5-27.29,35.83-5.81,4.11-12.05,8.08-18.41,11.29-7.64,3.86-10.43,2.06-17.7-1.92-9.54-5.22-41.51-21.33-41.53-35.02,0-7.06,6.26-5.1,13.11-6.26,8.52-1.45,17.08-3.41,25.15-6.56,6.61-2.57,12.8-5.98,18.13-10.69,2.97-2.62,15.35-14.59,12.97-19.23-4.1-7.97-17.6,11.52-22.93,14.8-14.16,8.7-33.28,12.68-49.54,14.51-15.28,1.72-30.08,1.37-32.66-16.46-1.16-8.05-1.97-15.75-3.55-23.81-1.61-8.18.27-14.93-6.03-20.82-5.81-5.43-8.94-4.62-6.9-13.14,2.11-8.79,10.19-16.51,10.81-25.84.58-8.67-7.34-13.19-7.03-21.85.35-10.03,6.79-21.52,10.38-30.75,4.23-10.85,4.64-11.91,15.82-9.63,9.41,1.92,18.87,2.78,28.45,1.6,6.24-.77,42.76-10.28,35.33-17.73-2.35-2.36-21.55,5.32-24.88,5.93-9.52,1.76-19.43,2.6-29.1,1.75-21.54-1.91-30.48-14.96-41.82-31.69Z"/>
      <path class="cls-3" d="M233.89,15.48c1.56,3.88,4.7,18.34,8.56,20.04,5.7,2.52,4.21-4.62,8.49,2.06,2.49,3.89-.63,9.64,5.08,10.46,4.74.68,8.74-9.03,13.36-6.5,3.48,1.91-.04,13.95,4.11,16.75,5.83,3.93,8.07-4.62,11.72-6.25,12.57-5.62.14,30.24-.55,35.91-12.8-5.29-23.3-5.14-29.94,7.62-5.71,10.96-7.16,23.82-4.09,35.78,1.44,5.62,3.87,10.99,7.19,15.76,2.55,3.66,9.23,7.82,10.1,12.18.81,4.1-4,11.6-5.13,15.83-1.82,6.86-3.16,14.19-.9,21.11,2.51,7.7,6.19,8.9,3.26,17.35-2.2,6.33-6.15,12.04-8.05,18.53-1.62,5.55-2.14,10.6.71,15.86,2.51,4.64,7.96,6.61,10.11,11.37,5.6,12.42,1.82,29.22,6.83,42.36,4.15,10.89,13.17,17.42,24.45,19.74-5.92,6.07-10.06,14.27-17.39,18.89-3.9,2.46-14.68,8.93-17.28,4.56-2.32-3.91,8.88-21.67,8.54-27.79-.65-11.64-10.4-14.11-20.14-13.72-9.03.36-21.37-2.45-26.18,5.56-5.52,9.2-4.9,20.79-6.87,30.93-4.67,24.05-13.52,34.63-34.1,46.47,1.86-8.34,7.43-15.54,8.14-24.08.85-10.22-3.9-20.54-4.05-30.95-.17-11.54-1.23-22.35-4.25-33.56-2.59-9.59-9.45-14.98-14.42-23.51-5.04-8.66-13.44-17.48-15.02-27.6-1.48-9.49,4.19-20.83,8.3-29.22,3.05-6.23,7.77-8.14,10.22-14.12,1.3-3.17.4-4.61,3.18-7.13,4.17-3.78,6.11,1.3,7.45-6.2,1.52-8.54-5.83-15.1-10.44-20.58-2.99-3.55-3.45-5.99-5.29-10.02-2.04-4.46-4.49-6.15-7.57-9.83-5.51-6.56-2.54-12.53-5.55-19.41-3.27-7.46-9.21-2.97-14.22-7.18-7.79-6.54-15.8-40.04-10.32-48.02,1.92-2.79,5.29-3.26,6.89-6.97,1.56-3.59-.47-7.78.73-11.07,1.27-3.46,3.08-2.34,4.64-5.03,1.64-2.82,2.21-5.65,4.21-8.31,2.17-2.9,4.35-3.7,6.24-7.44,1.21-2.4,2.72-10.63,6.01-11.33,7.97-1.69,3.86,12.72,11.65,13.42,4.67.42,7.55-4.32,13.24-2.62,5.85,1.74,6.34,5.07,12.87,4.26,11.78-1.46,19.66-12.86,26.65-21.07.93.27.45-.39.47-.72,0-.22.1-.36.31-.4,2.74-.49,4.87-3.26,8.04-2.19Z"/>
      <path class="cls-5" d="M276.34,355.65c-7.15,13.33-17.87,25.83-23.99,39.57-4.77,10.69,8.73,11.28,15.48,18.34-5.93,2.84-17.94,8.87-21.68,14.58-4.46,6.82,1.43,13.94,4.6,21.05,8.53,19.14,17.17,38.24,26.58,56.96-23.04,0-51.95-5.3-64.27,19.21-6.05,12.03-2.85,29.14-2.85,42.3,0,17.3,0,34.6,0,51.9,0,15.48,0,30.96.02,46.44,0,3.39,2.2,21.17-.22,23.91-2.78,3.14-11.99-.03-15.41-1.18-12.82-4.34-24.54-14.46-35.26-22.48-5.19-3.88-10.3-7.9-15.23-12.12-4.11-3.52-16.97-10.94-19.53-14.97-5.39-8.51,3.22-31.01,4.96-41.19,2.95-17.29,5.54-34.64,8.34-51.95,5.58-34.49,11.96-68.83,18.35-103.18.94-5.04,2.44-33.57,9.37-29.51,7.71,4.51,10.32,30.74,12.3,38.32,3.93,15.05,8.08,30.66,14.75,44.77,10.57,22.36,7.42-1.88,4.98-11.78-4.09-16.59-8.99-33.05-14.71-49.15-2.86-8.06-6.4-15.33-9.93-22.94-3.98-8.6.55-7.8,9.74-12.27,16.08-7.8,32.23-15.48,48.36-23.18,7.98-3.81,15.96-7.62,23.95-11.41,5.72-2.72,14.8-9.57,21.29-10.01Z"/>
      <path class="cls-5" d="M479.38,413.33c3.92-4.58,10.81-5.93,14.48-10.09,4.58-5.19,1.72-6.77-2.39-13.09-7.8-12-15.29-24.2-22.45-36.6,35.49,21.69,74.97,35.33,110.7,56.59-11.15,2.68-18.3,34.77-21.33,44.24-2.69,8.4-5.14,16.91-7.19,25.48-1.57,6.57-7.1,20.94-4.01,27.38,10.21-5.88,14.16-27.93,17.37-38.23,4.99-16.02,8.41-32.73,15.02-48.18,7.5-17.51,10,6.46,11.6,14.4,3.21,15.95,6.42,31.96,8.65,48.08,4.26,30.83,7.95,61.71,12.37,92.53,2.08,14.53,3.89,28.93,6.53,43.39,3.06,16.77-1.11,21.26-13.81,31.82-8.55,7.11-58.47,52.93-69.16,39.14-2.13-2.74-.23-15.38-.22-18.94.03-8.3.05-16.61.08-24.91.05-17.53.09-35.06.15-52.58.1-25.01,8.88-64.85-14.41-82.19-10.83-8.07-24.17-5.75-36.94-5.75-3.33,0-10.38,2.11-11.05-1.99-1.16-7.09,8.26-5.53,12.58-5.63,4.77-.11,42.43,3.31,34.81-7.84-1.99-2.91-12.22-.93-15.9-.93-3.54,0-21.76,1.97-24.54-.58-3.89-3.57,13.53-36.36,15.81-41.76,2.37-5.61,7.69-13.02,4.95-18.46-2.82-5.6-16.68-12.23-21.73-15.3Z"/>
      <path class="cls-5" d="M375.01,516.94c42.47,0,84.94-.01,127.42,0,12.37,0,21.7,8.98,22,21.51.24,9.99-.08,19.98-.07,29.98,0,40.47-.15,80.94.18,121.41.12,14.97.12,11.92,12.29,11.73,3.99-.06,7.98-.37,11.97-.66,2.36-.17,3.48.69,3.11,3.14-.1.66-.14,1.32-.23,1.99-1.01,7.97-.97,7.74-8.65,6.42-10.03-1.72-20.24-1.89-30.38-2-35.47-.39-70.95-.49-106.42-.74-3.08-.02-5.96-.22-7.19,3.62-.73,2.29-2.76,2.41-4.97,2.1-14.41-2.01-28.86-2.34-43.32-.61-2.95.35-5.09-.49-5.77-3.33-.56-2.33-1.63-2.78-3.83-2.63-31.77,2.22-63.61.14-95.39,1.19-16.29.54-32.64.16-48.83,2.51-1.87.27-2.43-.18-2.63-1.74-.22-1.65-.3-3.32-.57-4.96-.6-3.7.76-4.94,4.6-4.77,6.14.27,12.32-.31,18.47-.07,3.82.15,4.87-1.3,4.84-4.88-.12-17.15-.05-34.31-.06-51.46-.03-33.64-.2-67.29-.04-100.93.09-18.41,8.42-26.59,27.06-26.66,42.14-.15,84.27-.05,126.41-.05,0-.04,0-.08,0-.12ZM234.89,608.37c-.66,2.13-.79,4.27-.13,6.43.02,3.15.05,6.3.05,9.45.02,22.48.08,44.97,0,67.45-.02,3.93.65,6.04,5.43,6.04,45.63.04,91.27.53,136.9.44,42.3-.08,84.6-.85,126.91-.37,6.18.07,6.88-.58,7.23-6.72.13-2.16.12-4.33.12-6.49-.02-25.15-.09-50.3-.06-75.45.03-22.98.18-45.97.22-68.95.01-7.92-1.52-9.37-9.21-9.38-10.99-.02-21.99-.15-32.98-.11-74.78.33-149.57.53-224.35-.04-6.32-.05-9.9,3.31-9.94,9.73-.12,22.65-.13,45.3-.18,67.95Z"/>
      <path class="cls-3" d="M434.19,293.55c1-21,17.17-41.49,24.59-60.74,7.79-20.2,13.36-43.22,10.77-64.97-1.12-9.4-3.98-18.19-9.41-26-2.77-3.99-17.11-14.92-15.53-18.21.69-1.43,20.3-9.77,22.46-10.06,9.25-1.23,11.52,9.22,15.76,15.45,4.68,6.89,9.99,10.29,16.85,14.58,7.45,4.66,13.68,5.71,11.92,15.16-1.86,10.02-6.89,17.55-4.54,28.06,1.97,8.81,7.43,18.28,13.67,24.81,6.76,7.07,14.11,12.69,20,20.7,2.14,2.92,4,7.15,6.64,9.59,3.12,2.88,5.08.98,6.29,5.41.85,3.12-1.44,8.82-1.84,12.03-.7,5.52-.23,11.32-1.01,16.77-.96,6.7-5.67,14.92-10.13,20.63-8.24,10.55-12.86-3.18-21.41-6.08-9.18-3.11-20.75,3.88-30.8,3.29-11.57-.68-21.98-1.04-31.93-6.69-11.67-6.63-12.51,2.1-22.35,6.28Z"/>
      <path class="cls-5" d="M313.35,506.09c-6.65,0-21.14,2.58-25.84-2.44-5.83-6.23-9.47-21.27-12.95-29.06-4.81-10.77-10.06-21.33-14.94-32.07-4.89-10.76-1.43-10.93,8.12-17.36,5.86-3.94,17.19-7.39,13.17-14.63-3.8-6.84-17.14-6.66-17-14.85.09-5.34,12.27-19.51,15.1-24.45,5.17-9.01,10.21-18.09,16.17-26.61,1.18-1.69,11.74-18.02,14.39-17.46,3.27.69,3.09,19.34,3.42,22.46,2.18,20.73,5.04,40.98,8.36,61.54,3.24,20.05,6.54,39.67,10.68,59.56,1.38,6.62,8.64,25.04,6.51,31.07-1.64,4.65-.33,3.3-5.97,4.08-6.1.85-13.07-.01-19.24-.01v.23Z"/>
      <path class="cls-5" d="M435.13,325.61c12.31,16.25,23.32,31.71,34.07,49.03,2.59,4.17,14.86,17.25,14.21,22.58-.5,4.12-11.86,7.72-14.58,10.43-13.06,12.96,19.95,14.81,21.25,27.32.72,6.96-9.23,21.5-11.97,27.83-4.63,10.71-9.16,21.47-13.68,32.23-4.57,10.87-4.5,10.67-16.27,10.65-9.37-.02-26.64,3.45-35.29.56-7.99-2.67-3.91-8.17-2.16-16.46,2.23-10.63,4.28-21.3,6.23-31.99,7.99-43.91,13.69-87.79,18.21-132.18ZM459.11,428.88c-15.93-.3-18.71,22.18-2.56,24.62,16.35,2.47,18.45-24.33,2.56-24.62Z"/>
      <path class="cls-5" d="M373.13,506.31c-4.9,0-19.67,2.42-23.46.07-4.8-2.96-2.19-7.55-1.32-13.6,2.61-17.97,4.28-36.06,7.24-53.98,1.31-7.89,4.47-16.64,4.9-24.59.37-6.77-2.94-10.19-6.49-15.61-5-7.64-7.27-8.8-1.69-15.72,3.81-4.72,11.88-13.34,17.83-14.87,8.17-2.1,27.82,14.91,27.48,22.23-.29,6.35-10.03,11.71-11.58,18.13-1.7,7.04,1.93,16.26,3.17,23.09,3.4,18.69,6.32,37.46,8.69,56.3.56,4.4,4.12,14.8.39,17.84-3.43,2.8-21.29.31-25.18.31,0,.13,0,.26,0,.38Z"/>
      <path class="cls-3" d="M146.02,445.08c-8.64,20.82-9.83,44.94-14.1,67-2.25,11.64-3.7,23.43-5.32,35.16-1.16,8.43.76,23.73-3.41,30.89-4.89-2.45-7.78-6.23-8.79-11.55,0-.03.31-6.57.01-7.01-.95-1.43-2.78-1.18-3.2-1.66-.34-.4-2.44-.01-3.48-1.23-1.81-2.14.18-6.77-1.03-9.08-1.53-2.95-5.89-7.18-9.92-6.63-1.99,3.2-7.02,15.55-11.75,11.55-4.58-3.87,1.72-18.09,3.03-22.69,2.27-7.97,5.39-16.12,6.97-24.25,1.47-7.55,1.44-13.7,5.46-20.51,3.79-6.43,8.16-12.08,11.63-18.84,2.83-5.52,6.66-14.52,13.98-15.52,6.84-.94,5,6.15,9.08,6.03,4.08-.12,6.39-12.99,10.9-11.58l-.07-.07Z"/>
      <path class="cls-1" d="M302.59,31.09c.17.28.55.65.48.83-3.14,7.63.28,15.15.33,22.72-1.12-5.11-3.1-12.73-8.03-15.68-2.67-1.6-11.63.36-12.3-1.58-1.5-4.31,12.51-5.29,14.23-5.4.85.13,1.58-.08,2.15-.76,1.05-.04,2.1-.09,3.14-.13Z"/>
      <path class="cls-5" d="M233.89,15.48c-3.17-1.08-5.3,1.69-8.04,2.19.99-1.69,2.21-3.25,3.96-4.12,2-1,3.82-1.01,4.09,1.93Z"/>
      <path class="cls-1" d="M82.96,559.66c1.79.6,2.04,4.96-.41,4.58-1.81-.28-1.12-4.37.41-4.58Z"/>
      <path class="cls-5" d="M225.53,18.07c-.03.33.46.99-.47.72.07-.3.22-.53.47-.72Z"/>
      <path class="cls-3" d="M146.08,445.15l-.1-.23s.02.14.03.15c0,0,.07.08.07.08Z"/>
      <path class="cls-4" d="M299.45,31.23c-.56.68-1.3.88-2.15.76.72-.25,1.43-.51,2.15-.76Z"/>
      <path class="cls-2" d="M234.89,608.37c.05-22.65.06-45.3.18-67.95.03-6.43,3.61-9.78,9.94-9.73,74.78.57,149.57.37,224.35.04,10.99-.05,21.99.09,32.98.11,7.69.01,9.23,1.46,9.21,9.38-.04,22.98-.2,45.97-.22,68.95-.03,25.15.04,50.3.06,75.45,0,2.16,0,4.33-.12,6.49-.36,6.15-1.06,6.79-7.23,6.72-42.31-.48-84.61.29-126.91.37-45.63.09-91.27-.4-136.9-.44-4.77,0-5.44-2.11-5.43-6.04.09-22.48.03-44.97,0-67.45,0-3.15-.03-6.3-.05-9.45,3.52,2.4,13.64,3.74,14.82-.84,1.96-7.65-10.64-5.46-14.68-5.59ZM314.93,615.93v.07c1.95-6.61,1.62-7.1-4.75-7.06-2.46.02-4.91.06-7.37.1-2.55,5.69-1.88,7.02,3.61,7.01,2.29,0,4.57-.07,6.86-.11.55.37,1.1.57,1.64,0ZM326.76,600.17c.29,14.93,8.36,30.2,15.41,42.98,5.56,10.08,17.09,32.71,28.4,37.41,8.87,3.69,23.55-21.08,28.05-28.16,7.92-12.48,15.5-27.01,18.93-41.5,6.74-28.51-12.79-58.32-43.12-59.03-26.2-.61-47.71,22.58-47.68,48.3ZM434.66,616.92c2.53-1.5,8.59,2.11,6.83-4.66-.89-3.42-6.59-5.09-9.66-4.04-2.71.93-5.08,1.4-3.8,5.69,1.7,5.7,3,.97,6.62,3.01ZM479.58,608.74v-.06c-9.67,0-9.61,8.93-.06,8.05,8.57-.79,8.84-7.99.06-7.99ZM501.21,608.83v-.09c-8.76,0-10.51,5.99-2.23,7.64,9.98,1.99,13.99-7.55,2.23-7.55ZM456.31,616.85c7.57,0,9.88-5.98,2.28-8.21-9.32-2.73-12.26,7.31-2.28,8.21ZM286.06,616.25c7.81,0,9.56-5.93,1.74-7.42-2.09-.4-8.17-.19-8.48,3.16-.54,5.88,3.88,2.99,6.74,4.26Z"/>
      <path class="cls-3" d="M234.89,608.37c4.04.13,16.64-2.06,14.68,5.59-1.17,4.58-11.3,3.25-14.82.84-.65-2.16-.53-4.3.13-6.43Z"/>
      <path class="cls-2" d="M459.11,428.88c15.89.3,13.79,27.1-2.56,24.62-16.15-2.44-13.37-24.92,2.56-24.62Z"/>
      <path class="cls-5" d="M326.76,600.17c-.03-25.72,21.48-48.91,47.68-48.3,30.33.71,49.86,30.52,43.12,59.03-3.43,14.49-11,29.02-18.93,41.5-4.5,7.09-19.18,31.85-28.05,28.16-11.32-4.71-22.84-27.33-28.4-37.41-7.05-12.79-15.12-28.05-15.41-42.98ZM400.86,597.28c-.01-37.28-55.33-37.65-55.89-.74-.56,37.05,55.91,37.23,55.89.74Z"/>
      <path class="cls-3" d="M434.66,616.92c-3.62-2.04-4.93,2.69-6.62-3.01-1.28-4.29,1.09-4.76,3.8-5.69,3.07-1.05,8.77.62,9.66,4.04,1.76,6.77-4.31,3.16-6.83,4.66Z"/>
      <path class="cls-3" d="M479.58,608.74c8.78,0,8.51,7.2-.06,7.99-9.55.88-9.61-8.05.06-8.05v.06Z"/>
      <path class="cls-3" d="M501.21,608.83c11.75,0,7.75,9.54-2.23,7.55-8.28-1.65-6.52-7.64,2.23-7.64v.09Z"/>
      <path class="cls-3" d="M456.31,616.85c-9.98-.91-7.03-10.95,2.28-8.22,7.6,2.23,5.29,8.21-2.28,8.22Z"/>
      <path class="cls-3" d="M286.06,616.25c-2.87-1.27-7.28,1.61-6.74-4.26.31-3.35,6.39-3.56,8.48-3.16,7.82,1.49,6.07,7.42-1.74,7.42Z"/>
      <path class="cls-3" d="M302.81,609.03c2.46-.03,4.91-.08,7.37-.1,6.37-.04,6.69.45,4.75,7.06-2.08-1.32-4.43-1.04-6.65-.88-4.59.32-6.32-1.65-5.47-6.08Z"/>
      <path class="cls-1" d="M302.81,609.03c-.85,4.43.88,6.4,5.47,6.08,2.22-.16,4.57-.44,6.65.88,0,0,0-.07,0-.07-.55,0-1.09,0-1.64,0-2.29.04-4.57.11-6.86.11-5.49,0-6.16-1.32-3.61-7.01Z"/>
      <path class="cls-3" d="M313.28,615.93c.55,0,1.09,0,1.64,0-.54.57-1.09.38-1.64,0Z"/>
      <path class="cls-2" d="M400.86,597.28c.01,36.49-56.46,36.32-55.89-.74.56-36.91,55.88-36.54,55.89.74ZM358.48,596.76c.08,19.43,30.33,18.55,29.48-.72-.84-19.03-29.56-18.06-29.48.72Z"/>
      <path class="cls-5" d="M358.48,596.76c-.07-18.78,28.64-19.75,29.48-.72.85,19.28-29.4,20.15-29.48.72Z"/>
      <circle class="cls-2" cx="649.01" cy="383.25" r="7.4"/>
      <circle class="cls-2" cx="681.42" cy="383.02" r="7.4"/>
    </g>
  </g>
</svg>